<svg width="20" height="20" viewBox="0 0 20 20" fill="none" xmlns="http://www.w3.org/2000/svg">
<path fill-rule="evenodd" clip-rule="evenodd" d="M10 9H11.2237C12.4889 9 13.1719 10.503 12.3481 11.4765L11.1496 12.8917C11.2792 13.7312 11.7167 14.4903 12.3747 15.0176C13.0328 15.5448 13.863 15.8014 14.6997 15.7362C15.5364 15.671 16.318 15.2887 16.8885 14.6657C17.4591 14.0426 17.7766 13.2247 17.7778 12.375C17.7778 12.0766 17.8948 11.7905 18.1032 11.5795C18.3116 11.3685 18.5942 11.25 18.8889 11.25C19.1836 11.25 19.4662 11.3685 19.6746 11.5795C19.8829 11.7905 20 12.0766 20 12.375C20 13.5556 19.6331 14.7063 18.9513 15.664C18.2696 16.6217 17.3074 17.338 16.2013 17.7113C15.0951 18.0847 13.9009 18.0962 12.788 17.7441C11.675 17.3921 10.6996 16.6945 10 15.75C9.30039 16.6945 8.32502 17.3921 7.21204 17.7441C6.09907 18.0962 4.90491 18.0847 3.79873 17.7113C2.69256 17.338 1.73043 16.6217 1.04865 15.664C0.366874 14.7063 0 13.5556 0 12.375C4.39115e-09 12.0766 0.117063 11.7905 0.325437 11.5795C0.533811 11.3685 0.816426 11.25 1.11111 11.25C1.4058 11.25 1.68841 11.3685 1.89679 11.5795C2.10516 11.7905 2.22222 12.0766 2.22222 12.375C2.22093 13.2261 2.53731 14.0464 3.10799 14.6713C3.67866 15.2963 4.46148 15.6799 5.29964 15.7452C6.1378 15.8106 6.96939 15.5529 7.62784 15.0237C8.28628 14.4946 8.72295 13.7331 8.85037 12.8917L7.65185 11.4765C6.82815 10.503 7.51111 9 8.77778 9H10Z" fill="#FFBB11"/>
<path d="M15 6C16.1046 6 17 5.10457 17 4C17 2.89543 16.1046 2 15 2C13.8954 2 13 2.89543 13 4C13 5.10457 13.8954 6 15 6Z" fill="#FFBB11"/>
<path d="M6 6C7.10457 6 8 5.10457 8 4C8 2.89543 7.10457 2 6 2C4.89543 2 4 2.89543 4 4C4 5.10457 4.89543 6 6 6Z" fill="#FFBB11"/>
</svg>
