<svg xmlns="http://www.w3.org/2000/svg" width="24" height="24" fill="none"><path fill="#f6b81e" d="M11.57 8.682c-.053 1.166-.76 2.08-1.577 2.04-.817-.038-1.437-1.014-1.384-2.18s.76-2.08 1.577-2.04c.817.038 1.437 1.014 1.384 2.18M8.335 10.863c.24 1.003-.134 1.958-.837 2.133-.704.175-1.469-.495-1.71-1.498s.134-1.958.837-2.133 1.469.495 1.71 1.498M15.667 10.863c-.24 1.003.134 1.958.837 2.133s1.469-.495 1.71-1.498-.134-1.958-.838-2.133c-.703-.175-1.468.495-1.709 1.498M12.363 8.682c.053 1.166.76 2.08 1.577 2.04.817-.038 1.437-1.014 1.384-2.18s-.76-2.08-1.577-2.04c-.817.038-1.437 1.014-1.384 2.18M9.303 17.5c-.982 0-1.778-.81-1.778-1.811 0-.537.23-1.019.593-1.35l2.584-2.373a1.85 1.85 0 0 1 2.538 0l2.583 2.373c.364.331.593.813.593 1.35 0 1-.796 1.811-1.778 1.811q-.151 0-.296-.025c-1.78-.686-2.819-.686-4.742 0a2 2 0 0 1-.297.025"/></svg>