<svg width="23" height="23" viewBox="0 0 23 23" fill="none" xmlns="http://www.w3.org/2000/svg">
<path d="M13.5711 8.72182C12.5516 9.65248 11.1971 9.82645 10.5456 9.11038C9.89415 8.3943 10.1925 7.05936 11.2119 6.12869C12.2314 5.19802 13.586 5.02406 14.2374 5.74013C14.8889 6.4562 14.5906 7.79115 13.5711 8.72182Z" fill="#FFBB11"/>
<path d="M9.04087 7.84032C8.40364 8.88053 7.29143 9.36583 6.55668 8.92427C5.82193 8.48271 5.74287 7.2815 6.38011 6.24129C7.01734 5.20108 8.12955 4.71578 8.8643 5.15734C9.59905 5.5989 9.6781 6.80011 9.04087 7.84032Z" fill="#FFBB11"/>
<path d="M15.1737 13.9731C14.1334 14.6103 13.6481 15.7225 14.0897 16.4573C14.5313 17.192 15.7325 17.2711 16.7727 16.6339C17.8129 15.9966 18.2982 14.8844 17.8566 14.1497C17.4151 13.4149 16.2139 13.3359 15.1737 13.9731Z" fill="#FFBB11"/>
<path d="M14.2348 9.3855C13.3041 10.405 13.1302 11.7595 13.8462 12.411C14.5623 13.0625 15.8972 12.7641 16.8279 11.7447C17.7586 10.7252 17.9325 9.37064 17.2165 8.71918C16.5004 8.06771 15.1655 8.36603 14.2348 9.3855Z" fill="#FFBB11"/>
<path d="M4.30021 14.2017C3.4788 13.3803 3.49118 12.0361 4.32785 11.1995C4.77652 10.7508 5.37112 10.5392 5.95279 10.5661L10.0987 10.7423C10.6395 10.7604 11.1716 10.9736 11.5809 11.3829C11.9901 11.7921 12.2033 12.3243 12.2214 12.865L12.3977 17.011C12.4246 17.5926 12.2129 18.1872 11.7643 18.6359C10.9276 19.4726 9.58346 19.4849 8.76206 18.6635C8.6776 18.5791 8.60196 18.4891 8.53512 18.3947C7.6202 16.3318 6.75151 15.4636 4.56903 14.4286C4.47465 14.3618 4.38466 14.2861 4.30021 14.2017Z" fill="#FFBB11"/>
</svg>
